<?xml version="1.0" encoding="UTF-8"?>
<!DOCTYPE svg PUBLIC "-//W3C//DTD SVG 1.1//EN" "http://www.w3.org/Graphics/SVG/1.1/DTD/svg11.dtd">
<!-- Creator: CorelDRAW -->
<svg xmlns="http://www.w3.org/2000/svg" xml:space="preserve" width="83.4753mm" height="23.6344mm" version="1.1" style="shape-rendering:geometricPrecision; text-rendering:geometricPrecision; image-rendering:optimizeQuality; fill-rule:evenodd; clip-rule:evenodd"
viewBox="0 0 8333.3 2359.41"
 xmlns:xlink="http://www.w3.org/1999/xlink"
 xmlns:xodm="http://www.corel.com/coreldraw/odm/2003">
 <defs>
  <style type="text/css">
   <![CDATA[
    .fil0 {fill:#2B2A29;fill-rule:nonzero}
   ]]>
  </style>
 </defs>
 <g id="Camada_x0020_1">
  <metadata id="CorelCorpID_0Corel-Layer"/>
  <g id="_2190298122432">
   <path class="fil0" d="M515.58 30.38c73.27,0 138.89,10.65 196.84,31.97 57.95,21.32 106.92,51.96 146.88,91.93 39.97,39.96 70.28,87.59 90.93,142.89 20.64,55.29 30.97,116.9 30.97,184.84 0,54.63 -8.98,112.58 -26.97,173.86 -17.99,61.29 -46.29,117.91 -84.94,169.87 -38.63,51.95 -88.26,95.26 -148.88,129.89 -60.62,34.64 -133.56,52.63 -218.83,53.96 -58.62,0 -112.58,-5.33 -161.87,-15.98l0 465.63 -259.79 0c-2.67,-231.81 -6.66,-444.31 -11.99,-637.49 -2.67,-82.6 -6,-164.87 -9.99,-246.8 -3.99,-81.94 -8.67,-157.54 -13.99,-226.82 -5.33,-69.27 -11.66,-129.23 -18.99,-179.85 -7.33,-50.62 -15.65,-86.59 -24.98,-107.92 25.31,-2.67 58.62,-5.66 99.92,-8.99 41.3,-3.32 85.92,-6.66 133.89,-9.98 47.96,-3.33 96.92,-6 146.88,-8 49.96,-2 94.93,-2.99 134.89,-2.99zm221.82 485.61c25.32,-113.25 28.65,-203.84 9.99,-271.79 -18.65,-67.94 -49.63,-115.91 -92.92,-143.88 -43.3,-27.98 -93.59,-37.64 -150.88,-28.98 -57.28,8.67 -111.91,32.97 -163.87,72.95l0 817.34c34.64,13.32 70.61,16.65 107.92,9.99 37.31,-6.66 73.27,-26.98 107.92,-60.96 34.64,-33.97 67.61,-82.93 98.92,-146.88 31.31,-63.95 58.95,-146.55 82.93,-247.8zm181.86 -181.86l-133.89 -251.8c133.22,-47.96 238.47,-74.94 315.74,-80.93 77.28,-6 135.23,7.33 173.86,39.97 38.63,32.63 63.28,82.93 73.94,150.87 10.65,67.94 15.98,151.21 15.98,249.8l0 1017.18 -257.79 0c-1.33,-86.6 -2.67,-176.19 -3.99,-268.78 -1.34,-92.59 -3,-183.53 -5,-272.78 -2,-89.26 -4.33,-175.19 -6.99,-257.79 -2.67,-82.61 -6,-157.21 -9.99,-223.83 -2.67,-41.3 1.66,-83.93 12.99,-127.89 11.32,-43.96 22.98,-84.61 34.97,-121.9 11.99,-37.31 21.98,-68.95 29.98,-94.93 7.99,-25.98 7.99,-41.63 0,-46.96 -10.66,-6.66 -35.31,13.32 -73.94,59.95 -38.63,46.63 -93.93,123.24 -165.87,229.82zm1069.14 1015.19c-14.65,26.64 -32.64,50.62 -53.96,71.95 -18.65,18.65 -41.97,34.97 -69.94,48.96 -27.98,13.99 -61.29,20.98 -99.92,20.98 -67.95,0 -122.24,-14.65 -162.87,-43.96 -40.64,-29.31 -70.28,-65.28 -88.93,-107.92 -18.66,-42.63 -27.31,-87.93 -25.99,-135.89 1.34,-47.97 9.99,-89.93 25.99,-125.91 17.32,-37.3 40.96,-70.61 70.94,-99.92 29.98,-29.31 63.62,-55.29 100.92,-77.94 37.31,-22.64 75.94,-42.97 115.91,-60.95 39.96,-17.99 79.26,-35.64 117.91,-52.96 43.96,-21.31 76.93,-43.64 98.91,-66.95 21.98,-23.32 37.65,-45.63 46.97,-66.95 9.32,-21.31 13.66,-40.63 12.99,-57.95 -0.67,-17.32 -1.67,-29.98 -2.99,-37.98 -2.67,-13.32 -7.67,-26.32 -14.99,-38.96 -7.33,-12.66 -17.98,-23.65 -31.98,-32.97 -13.99,-9.33 -31.31,-16.32 -51.95,-20.98 -20.65,-4.66 -45.63,-5 -74.94,-1 -34.64,3.99 -66.95,13.99 -96.92,29.97 -29.98,15.99 -57.28,35.31 -81.93,57.96 -24.65,22.64 -47.3,46.63 -67.94,71.94 -20.65,25.32 -39.64,49.3 -56.96,71.95l-41.96 -221.82c33.3,-9.33 69.94,-16.66 109.91,-21.98 33.3,-5.33 71.94,-9.99 115.9,-14 43.96,-3.99 89.26,-6.66 135.89,-7.99 91.93,-1.34 166.54,5.99 223.83,21.98 57.28,15.98 89.93,45.96 97.91,89.93 5.33,33.3 -2,63.28 -21.98,89.93 -19.98,26.64 -45.96,50.95 -77.94,72.94 -31.97,21.98 -66.61,41.97 -103.91,59.96 -37.31,17.99 -69.94,34.97 -97.92,50.96 -70.61,39.96 -121.57,86.59 -152.88,139.88 -31.31,53.29 -43.63,124.57 -36.97,213.83 2.67,45.29 10.32,85.26 22.98,119.9 12.66,34.64 29.31,60.29 49.96,76.94 20.64,16.66 44.96,22.32 72.94,16.99 27.98,-5.33 57.95,-25.98 89.93,-61.95 19.99,-17.32 38.63,-41.63 55.95,-72.94 17.32,-31.31 33.31,-65.95 47.97,-103.92 14.65,-37.97 28.97,-76.94 42.97,-116.9 13.99,-39.97 27.3,-77.61 39.96,-112.92 12.66,-35.3 25.65,-65.61 38.97,-90.92 13.32,-25.31 26.64,-42.63 39.96,-51.95l0 203.83c0,63.95 -0.33,137.23 -1,219.82 -0.66,82.6 -1,171.86 -1,267.78l-257.79 0 0 -111.91zm951.91 -921.26c103.91,-2.67 183.19,16.98 238.47,58.95 54.96,41.97 82.6,116.24 82.6,222.82l0 749.4 -257.79 0 0 -703.44c0,-70.61 -6.66,-126.56 -19.99,-167.86 -13.32,-41.3 -30.31,-70.28 -50.95,-86.93 -20.65,-16.65 -43.64,-21.98 -68.95,-15.98 -25.31,5.99 -49.63,21.31 -72.94,45.96 -23.32,24.65 -44.63,58.29 -63.95,100.92 -19.32,42.64 -32.97,91.26 -40.97,145.88l0 681.46 -257.79 0c-1.34,-163.87 -4.66,-314.41 -9.99,-451.64 -2.67,-58.62 -6,-116.9 -9.99,-174.86 -3.99,-57.95 -8.66,-111.91 -13.99,-161.86 -5.33,-49.96 -11.99,-93.6 -19.99,-130.9 -8,-37.31 -16.65,-63.95 -25.98,-79.94l337.72 0 -0.67 173.86c22.65,-65.28 54.3,-115.24 94.6,-149.87 40.63,-34.64 94.26,-53.29 160.54,-55.95zm1015.19 0c103.91,-2.67 183.19,16.98 238.47,58.95 54.96,41.97 82.6,116.24 82.6,222.82l0 749.4 -257.79 0 0 -703.44c0,-70.61 -6.66,-126.56 -19.99,-167.86 -13.32,-41.3 -30.31,-70.28 -50.95,-86.93 -20.65,-16.65 -43.64,-21.98 -68.95,-15.98 -25.31,5.99 -49.63,21.31 -72.94,45.96 -23.32,24.65 -44.63,58.29 -63.95,100.92 -19.32,42.64 -32.97,91.26 -40.97,145.88l0 681.46 -257.79 0c-1.34,-163.87 -4.66,-314.41 -9.99,-451.64 -2.67,-58.62 -6,-116.9 -9.99,-174.86 -3.99,-57.95 -8.66,-111.91 -13.99,-161.86 -5.33,-49.96 -11.99,-93.6 -19.99,-130.9 -8,-37.31 -16.65,-63.95 -25.98,-79.94l337.72 0 -0.67 173.86c22.65,-65.28 54.3,-115.24 94.6,-149.87 40.63,-34.64 94.26,-53.29 160.54,-55.95zm1274.31 403.67c-42.64,11.99 -88.27,24.32 -136.9,36.98 -48.63,12.65 -97.58,25.65 -146.88,38.96 -49.3,13.33 -97.25,25.98 -143.88,37.97 -46.63,12 -89.26,23.32 -127.9,33.98 10.66,47.96 24.65,98.58 41.97,151.87 17.32,53.29 37.64,103.25 60.96,149.88 23.31,46.63 48.29,85.93 74.94,117.91 26.64,31.97 53.95,50.95 81.93,56.95 27.97,5.99 55.95,-5 83.94,-32.97 27.97,-27.98 54.62,-78.61 79.93,-151.88l97.92 8c-31.98,77.27 -74.94,131.89 -128.9,163.87 -53.96,31.97 -124.9,47.29 -212.83,45.96 -62.62,0 -120.9,-13.33 -174.86,-39.97 -53.96,-26.64 -101.26,-63.95 -141.89,-111.91 -40.63,-47.96 -72.95,-105.58 -96.92,-172.86 -23.98,-67.28 -37.3,-142.89 -39.96,-226.81 -2.67,-74.61 3.99,-142.89 19.98,-204.84 15.99,-61.94 40.97,-115.24 74.94,-159.87 33.97,-44.63 76.94,-79.6 128.9,-104.92 51.96,-25.31 112.58,-38.63 181.85,-39.96 54.63,0 104.25,9.65 148.89,28.97 44.63,19.32 84.6,46.63 119.91,81.94 35.3,35.3 65.95,77.94 91.92,127.89 25.98,49.96 46.96,104.92 62.95,164.87zm-567.55 89.93c23.98,-5.33 53.29,-11.99 87.93,-19.99 34.64,-7.99 70.28,-16.31 106.92,-24.98 36.64,-8.66 72.28,-16.65 106.92,-23.98 34.63,-7.33 63.94,-14.33 87.93,-20.98 -31.98,-93.26 -65.62,-168.53 -100.93,-225.81 -35.3,-57.29 -69.94,-97.25 -103.91,-119.91 -33.97,-22.65 -65.28,-29.31 -93.92,-19.99 -28.65,9.32 -51.96,32.64 -69.95,69.94 -17.98,37.31 -29.64,88.6 -34.97,153.88 -5.33,65.29 -0.67,142.56 13.99,231.81zm1618.71 -861.31l0 1398.88 -257.8 0c-14.65,6.66 -40.63,13.66 -77.94,20.98 -37.3,7.33 -77.27,10.99 -119.9,10.99 -69.28,0 -132.9,-13.33 -190.85,-39.97 -57.95,-26.64 -108.57,-63.95 -151.88,-111.91 -43.3,-47.96 -77.94,-105.91 -103.91,-173.86 -25.98,-67.94 -42.3,-143.22 -48.96,-225.81 -4,-61.29 2.33,-122.23 18.98,-182.86 16.66,-60.62 42.97,-114.9 78.94,-162.86 35.98,-47.97 80.94,-86.93 134.9,-116.91 53.96,-29.98 116.24,-45.63 186.85,-46.96 49.29,-1.34 94.59,4.33 135.89,16.98 41.3,12.66 79.26,28.98 113.91,48.97 -2.67,-53.29 -5.99,-103.92 -9.99,-151.88 -3.99,-47.96 -7.99,-91.26 -11.99,-129.9 -3.99,-38.63 -8.99,-71.28 -14.98,-97.92 -6,-26.64 -12.33,-45.29 -18.99,-55.95l337.73 0zm-273.78 569.55c-33.3,-46.63 -69.61,-83.6 -108.91,-110.91 -39.3,-27.31 -78.27,-44.63 -116.9,-51.96 -38.64,-7.33 -74.94,-3.66 -108.91,10.99 -33.97,14.65 -61.29,41.3 -81.94,79.93 -20.64,38.64 -33.63,89.6 -38.96,152.88 -5.33,63.28 2,139.56 21.98,228.82 30.64,146.55 65.95,257.79 105.91,333.73 39.97,75.94 80.94,127.56 122.9,154.88 41.97,27.31 82.27,36.64 120.9,27.98 38.64,-8.67 71.95,-24.99 99.92,-48.97 0,-31.98 -0.33,-76.27 -1,-132.89 -0.66,-56.62 -1.66,-119.91 -2.99,-189.85 -1.33,-69.94 -2.99,-144.21 -4.99,-222.82 -2.01,-78.61 -4.33,-155.87 -7,-231.81zm379.69 717.43c0,-43.96 13.66,-79.6 40.97,-106.92 27.3,-27.31 62.94,-40.97 106.91,-40.97 45.3,0 81.27,13.66 107.92,40.97 26.64,27.31 39.97,62.95 39.97,106.92 0,43.96 -13.33,79.6 -39.97,106.92 -26.64,27.3 -62.61,40.96 -107.92,40.96 -43.96,0 -79.6,-13.66 -106.91,-40.96 -27.31,-27.31 -40.97,-62.95 -40.97,-106.92zm939.25 -917.26c70.61,0 132.89,14.98 186.84,44.96 53.96,29.98 98.59,68.94 133.9,116.9 35.3,47.97 61.29,102.58 77.94,163.87 16.65,61.29 22.98,122.57 18.98,183.86 -6.66,82.6 -22.31,157.21 -46.96,223.82 -24.65,66.62 -56.28,123.9 -94.92,171.87 -38.64,47.96 -83.61,85.26 -134.9,111.91 -51.29,26.64 -106.25,41.3 -164.87,43.96 -42.63,2.67 -81.93,0 -117.9,-8 -35.98,-8 -67.29,-18.65 -93.93,-31.98l0 409.67 -257.79 0c-1.34,-239.8 -4.66,-457.63 -9.99,-653.47 -2.67,-83.93 -6,-166.87 -9.99,-248.8 -3.99,-81.94 -8.66,-157.21 -13.99,-225.82 -5.33,-68.61 -11.99,-127.23 -19.99,-175.86 -8,-48.63 -16.65,-80.93 -25.98,-96.92l337.72 0 0 43.96c34.64,-22.64 71.61,-40.63 110.91,-53.95 39.3,-13.33 80.94,-19.99 124.91,-19.99zm173.85 509.59c27.98,-130.57 32.31,-233.81 12.99,-309.75 -19.32,-75.94 -51.28,-126.23 -95.92,-150.88 -44.63,-24.65 -96.92,-24.31 -156.87,1 -59.96,25.32 -116.58,72.62 -169.87,141.89l0 773.38c29.31,26.64 61.95,44.63 97.92,53.96 35.97,9.32 72.28,-0.33 108.91,-28.98 36.64,-28.64 72.28,-80.59 106.92,-155.87 34.63,-75.27 66.61,-183.52 95.92,-324.74zm665.46 -423.66l0 715.42c0,39.97 2.67,72.62 8,97.92 5.33,25.32 13.66,44.96 24.98,58.96 11.33,13.99 25.65,23.31 42.97,27.97 17.32,4.66 37.98,7 61.95,7l0 35.97c-26.64,9.32 -57.96,16.99 -93.93,22.98 -35.97,6 -68.61,8.99 -97.92,8.99 -22.64,0 -45.96,-1.67 -69.94,-5 -23.98,-3.32 -45.96,-11.32 -65.95,-23.98 -19.99,-12.66 -36.31,-30.98 -48.96,-54.96 -12.66,-23.98 -18.99,-56.62 -18.99,-97.92 0,-55.95 -0.67,-122.56 -2,-199.84 -1.34,-77.27 -4.33,-155.21 -8.99,-233.81 -4.66,-78.61 -11.32,-152.54 -19.99,-221.82 -8.66,-69.28 -19.65,-123.9 -32.97,-163.87l-15.98 -2 0 -27.98c38.63,0 74.6,-9.98 107.91,-29.97 33.31,-19.99 64.29,-44.96 92.93,-74.94 28.64,-29.98 54.29,-63.28 76.94,-99.92 22.64,-36.64 42.63,-70.94 59.95,-102.91l0 307.74 167.86 0 0 67.95 -167.86 -11.99z"/>
   <path class="fil0" d="M1280.17 1806.27l0 518.77c0,16.4 6.25,21.87 21.09,21.87l32.81 0c14.84,0 21.09,-5.47 21.09,-21.87l0 -395.34 120.32 222.67c3.9,7.03 13.28,11.72 21.87,11.72l37.51 0c7.81,0 14.06,-3.91 18.75,-11.72l121.09 -221.1 0 393.77c0,16.4 6.26,21.87 21.88,21.87l32.81 0c14.84,0 20.32,-5.47 20.32,-21.87l0 -518.77c0,-16.41 -5.47,-21.88 -20.32,-21.88l-39.06 0c-18.76,0 -22.66,6.25 -32.81,25.01l-142.2 272.66 -142.2 -272.66c-9.37,-17.97 -13.28,-25.01 -32.03,-25.01l-39.85 0c-14.84,0 -21.09,5.47 -21.09,21.88zm878.95 353.92c0,-92.19 -32.04,-198.44 -163.29,-198.44 -131.26,0 -163.28,106.25 -163.28,198.44 0,92.19 32.03,198.45 163.28,198.45 131.26,0 163.29,-106.26 163.29,-198.45zm-246.89 0c0,-63.28 15.63,-133.59 83.6,-133.59 67.97,0 83.6,70.31 83.6,133.59 0,62.5 -15.62,132.82 -83.6,132.82 -67.96,0 -83.6,-70.32 -83.6,-132.82zm93.76 -244.54c5.47,0 10.94,-2.34 16.4,-10.15l73.44 -107.82c7.03,-10.94 1.57,-17.97 -11.72,-17.97l-49.22 0c-14.84,0 -17.19,3.12 -25.01,18.75l-52.34 103.91c-3.91,7.82 -2.35,13.28 7.03,13.28l41.41 0zm202.35 54.7c-16.41,0 -20.32,7.03 -14.07,25l101.57 324.24c7.82,22.65 16.41,28.91 39.06,28.91l32.04 0c22.66,0 31.26,-6.26 39.06,-28.91l102.36 -324.24c4.68,-18.75 1.56,-25 -14.84,-25l-41.41 0c-19.54,0 -24.22,4.68 -28.91,26.56l-72.66 277.36 -71.88 -277.36c-4.69,-21.88 -9.38,-26.56 -28.13,-26.56l-42.19 0zm606.29 214.85c24.22,0 28.12,-4.69 28.12,-34.38 0,-129.69 -56.25,-188.29 -145.31,-188.29 -102.36,0 -154.7,75 -154.7,195.33 0,140.63 69.53,198.44 171.1,198.44 40.63,0 78.92,-8.6 102.35,-25.79 12.51,-9.37 21.88,-21.09 21.88,-38.27 0,-12.51 -5.47,-20.32 -14.07,-20.32 -10.94,0 -55.48,21.09 -103.91,21.09 -52.34,0 -95.32,-25.79 -99.22,-107.82l193.76 0zm-115.63 -162.51c48.44,0 69.53,34.38 69.53,109.38l-147.66 0c1.56,-65.63 23.44,-109.38 78.13,-109.38zm220.32 302.36c0,17.18 5.47,21.87 21.1,21.87l35.94 0c15.62,0 21.09,-4.69 21.09,-21.87l0 -332.83c0,-16.4 -4.69,-21.87 -21.09,-21.87l-35.94 0c-16.41,0 -21.1,5.47 -21.1,21.87l0 332.83zm-4.68 -450.81c0,16.41 6.25,21.88 21.87,21.88l43.76 0c15.62,0 21.09,-5.47 21.09,-21.88l0 -44.52c0,-15.63 -5.47,-21.88 -21.09,-21.88l-43.76 0c-15.62,0 -21.87,6.25 -21.87,21.88l0 44.52zm154.7 420.33c0,43.76 59.38,61.72 124.22,61.72 89.85,0 147.67,-39.84 147.67,-122.66 0,-152.35 -184.39,-92.19 -184.39,-163.29 0,-35.16 28.91,-46.09 67.97,-46.09 54.69,0 78.91,25 90.63,25 7.82,0 14.07,-10.15 14.07,-23.44 0,-36.72 -57.03,-63.28 -117.98,-63.28 -65.63,0 -133.59,28.91 -133.59,111.73 0,135.16 184.38,78.91 184.38,166.41 0,27.35 -17.18,53.91 -73.43,53.91 -71.88,0 -96.88,-25.78 -107.82,-25.78 -10.94,0 -11.72,19.53 -11.72,25.78zm478.14 -13.28c0,21.09 10.16,34.38 26.56,46.09 25.79,18.76 71.88,32.04 125.01,32.04 106.26,0 169.54,-54.69 169.54,-165.63 0,-209.39 -225.01,-144.54 -225.01,-273.45 0,-54.69 38.27,-75 86.72,-75 62.5,0 95.32,33.59 110.94,33.59 7.03,0 14.07,-7.82 14.07,-25 0,-17.97 -10.16,-35.94 -34.38,-50 -26.56,-15.62 -66.41,-25 -102.35,-25 -76.57,0 -153.92,36.72 -153.92,146.88 0,185.16 224.23,125.79 224.23,271.89 0,54.69 -28.12,95.32 -100.78,95.32 -71.89,0 -114.08,-39.84 -128.13,-39.84 -10.16,0 -12.51,18.75 -12.51,28.12l0 0zm706.28 -121.1c0,-92.19 -32.04,-198.44 -163.29,-198.44 -131.26,0 -163.28,106.25 -163.28,198.44 0,92.19 32.03,198.45 163.28,198.45 131.26,0 163.29,-106.26 163.29,-198.45zm-246.89 0c0,-63.28 15.63,-133.59 83.6,-133.59 67.97,0 83.6,70.31 83.6,133.59 0,62.5 -15.62,132.82 -83.6,132.82 -67.96,0 -83.6,-70.32 -83.6,-132.82zm321.11 164.86c0,17.18 5.47,21.87 21.09,21.87l35.94 0c15.63,0 21.09,-4.69 21.09,-21.87l0 -30.48c21.09,35.94 51.57,60.17 96.11,60.17 96.87,0 135.94,-97.66 135.94,-200.01 0,-90.64 -32.04,-192.2 -137.51,-192.2 -45.31,0 -73.44,22.66 -94.54,56.25l0 -204.7c0,-16.4 -4.68,-21.87 -21.09,-21.87l-35.94 0c-15.62,0 -21.09,5.47 -21.09,21.87l0 510.97zm151.57 -297.67c63.28,0 78.13,67.97 78.13,128.13 0,64.85 -16.4,135.16 -76.56,135.16 -39.85,0 -75.01,-35.16 -75.01,-135.16l0 -11.72c1.57,-74.22 23.44,-116.41 73.44,-116.41zm400.02 -221.1l0 518.77c0,16.4 6.25,21.87 21.09,21.87l32.81 0c14.84,0 21.09,-5.47 21.09,-21.87l0 -395.34 120.32 222.67c3.9,7.03 13.28,11.72 21.87,11.72l37.51 0c7.81,0 14.06,-3.91 18.75,-11.72l121.09 -221.1 0 393.77c0,16.4 6.26,21.87 21.88,21.87l32.81 0c14.84,0 20.32,-5.47 20.32,-21.87l0 -518.77c0,-16.41 -5.47,-21.88 -20.32,-21.88l-39.06 0c-18.76,0 -22.66,6.25 -32.81,25.01l-142.2 272.66 -142.2 -272.66c-9.37,-17.97 -13.28,-25.01 -32.03,-25.01l-39.85 0c-14.84,0 -21.09,5.47 -21.09,21.88zm824.26 378.92c24.22,0 28.12,-4.69 28.12,-34.38 0,-129.69 -56.25,-188.29 -145.31,-188.29 -102.36,0 -154.7,75 -154.7,195.33 0,140.63 69.53,198.44 171.1,198.44 40.63,0 78.92,-8.6 102.35,-25.79 12.51,-9.37 21.88,-21.09 21.88,-38.27 0,-12.51 -5.47,-20.32 -14.07,-20.32 -10.94,0 -55.48,21.09 -103.91,21.09 -52.34,0 -95.32,-25.79 -99.22,-107.82l193.76 0zm-115.63 -162.51c48.44,0 69.53,34.38 69.53,109.38l-147.66 0c1.56,-65.63 23.44,-109.38 78.13,-109.38zm339.87 330.49c37.5,0 70.31,-10.94 96.87,-47.66 12.5,39.84 19.54,41.41 53.13,41.41 18.75,0 24.22,-5.47 24.22,-19.54l0 -513.3c0,-16.4 -4.69,-21.87 -21.09,-21.87l-35.94 0c-15.62,0 -21.09,5.47 -21.09,21.87l0 189.86c-27.34,-30.47 -60.16,-41.41 -92.97,-41.41 -107.04,0 -139.85,101.57 -139.85,192.98 0,90.63 33.59,197.66 136.73,197.66zm20.31 -325.79c67.2,0 75.01,66.41 75.01,128.91 0,92.97 -30.48,132.03 -75.01,132.03 -60.94,0 -76.56,-77.35 -76.56,-132.03 0,-63.28 15.62,-128.91 76.56,-128.91zm245.32 297.67c0,17.18 5.47,21.87 21.1,21.87l35.94 0c15.62,0 21.09,-4.69 21.09,-21.87l0 -332.83c0,-16.4 -4.69,-21.87 -21.09,-21.87l-35.94 0c-16.41,0 -21.1,5.47 -21.1,21.87l0 332.83zm-4.68 -450.81c0,16.41 6.25,21.88 21.87,21.88l43.76 0c15.62,0 21.09,-5.47 21.09,-21.88l0 -44.52c0,-15.63 -5.47,-21.88 -21.09,-21.88l-43.76 0c-15.62,0 -21.87,6.25 -21.87,21.88l0 44.52zm294.55 478.93c37.5,0 70.31,-10.94 96.87,-47.66 12.5,39.84 19.54,41.41 53.13,41.41 18.75,0 24.22,-5.47 24.22,-19.54l0 -513.3c0,-16.4 -4.69,-21.87 -21.09,-21.87l-35.94 0c-15.62,0 -21.09,5.47 -21.09,21.87l0 189.86c-27.34,-30.47 -60.16,-41.41 -92.97,-41.41 -107.04,0 -139.85,101.57 -139.85,192.98 0,90.63 33.59,197.66 136.73,197.66zm20.31 -325.79c67.2,0 75.01,66.41 75.01,128.91 0,92.97 -30.48,132.03 -75.01,132.03 -60.94,0 -76.56,-77.35 -76.56,-132.03 0,-63.28 15.62,-128.91 76.56,-128.91zm507.05 68.75c0,-97.66 -53.13,-133.6 -135.16,-133.6 -61.72,0 -97.66,15.62 -114.07,30.47 -13.29,11.72 -15.63,25.01 -15.63,33.6 0,10.93 3.12,21.09 12.51,21.09 11.72,0 51.56,-19.54 97.65,-19.54 45.32,0 78.14,17.97 78.14,68.75l0 39.85 -42.2 0c-104.69,0 -166.41,28.9 -166.41,112.5 0,77.35 55.47,103.91 111.72,103.91 45.31,0 77.35,-17.19 100.01,-41.41 7.81,29.69 33.59,41.41 60.94,41.41 33.59,0 54.69,-17.19 54.69,-46.09 0,-13.29 -5.46,-15.63 -13.28,-15.63 -20.32,0 -28.91,-1.56 -28.91,-36.72l0 -158.6zm-203.13 147.66c0,-42.19 28.91,-58.59 86.72,-58.59l39.85 0c0,76.56 -29.69,113.29 -74.22,113.29 -25.79,0 -52.35,-11.72 -52.35,-54.7z"/>
   <path class="fil0" d="M515.58 30.38c73.27,0 138.89,10.65 196.84,31.97 57.95,21.32 106.92,51.96 146.88,91.93 39.97,39.96 70.28,87.59 90.93,142.89 20.64,55.29 30.97,116.9 30.97,184.84 0,54.63 -8.98,112.58 -26.97,173.86 -17.99,61.29 -46.29,117.91 -84.94,169.87 -38.63,51.95 -88.26,95.26 -148.88,129.89 -60.62,34.64 -133.56,52.63 -218.83,53.96 -58.62,0 -112.58,-5.33 -161.87,-15.98l0 465.63 -259.79 0c-2.67,-231.81 -6.66,-444.31 -11.99,-637.49 -2.67,-82.6 -6,-164.87 -9.99,-246.8 -3.99,-81.94 -8.67,-157.54 -13.99,-226.82 -5.33,-69.27 -11.66,-129.23 -18.99,-179.85 -7.33,-50.62 -15.65,-86.59 -24.98,-107.92 25.31,-2.67 58.62,-5.66 99.92,-8.99 41.3,-3.32 85.92,-6.66 133.89,-9.98 47.96,-3.33 96.92,-6 146.88,-8 49.96,-2 94.93,-2.99 134.89,-2.99zm221.82 485.61c25.32,-113.25 28.65,-203.84 9.99,-271.79 -18.65,-67.94 -49.63,-115.91 -92.92,-143.88 -43.3,-27.98 -93.59,-37.64 -150.88,-28.98 -57.28,8.67 -111.91,32.97 -163.87,72.95l0 817.34c34.64,13.32 70.61,16.65 107.92,9.99 37.31,-6.66 73.27,-26.98 107.92,-60.96 34.64,-33.97 67.61,-82.93 98.92,-146.88 31.31,-63.95 58.95,-146.55 82.93,-247.8zm181.86 -181.86l-133.89 -251.8c133.22,-47.96 238.47,-74.94 315.74,-80.93 77.28,-6 135.23,7.33 173.86,39.97 38.63,32.63 63.28,82.93 73.94,150.87 10.65,67.94 15.98,151.21 15.98,249.8l0 1017.18 -257.79 0c-1.33,-86.6 -2.67,-176.19 -3.99,-268.78 -1.34,-92.59 -3,-183.53 -5,-272.78 -2,-89.26 -4.33,-175.19 -6.99,-257.79 -2.67,-82.61 -6,-157.21 -9.99,-223.83 -2.67,-41.3 1.66,-83.93 12.99,-127.89 11.32,-43.96 22.98,-84.61 34.97,-121.9 11.99,-37.31 21.98,-68.95 29.98,-94.93 7.99,-25.98 7.99,-41.63 0,-46.96 -10.66,-6.66 -35.31,13.32 -73.94,59.95 -38.63,46.63 -93.93,123.24 -165.87,229.82zm1069.14 1015.19c-14.65,26.64 -32.64,50.62 -53.96,71.95 -18.65,18.65 -41.97,34.97 -69.94,48.96 -27.98,13.99 -61.29,20.98 -99.92,20.98 -67.95,0 -122.24,-14.65 -162.87,-43.96 -40.64,-29.31 -70.28,-65.28 -88.93,-107.92 -18.66,-42.63 -27.31,-87.93 -25.99,-135.89 1.34,-47.97 9.99,-89.93 25.99,-125.91 17.32,-37.3 40.96,-70.61 70.94,-99.92 29.98,-29.31 63.62,-55.29 100.92,-77.94 37.31,-22.64 75.94,-42.97 115.91,-60.95 39.96,-17.99 79.26,-35.64 117.91,-52.96 43.96,-21.31 76.93,-43.64 98.91,-66.95 21.98,-23.32 37.65,-45.63 46.97,-66.95 9.32,-21.31 13.66,-40.63 12.99,-57.95 -0.67,-17.32 -1.67,-29.98 -2.99,-37.98 -2.67,-13.32 -7.67,-26.32 -14.99,-38.96 -7.33,-12.66 -17.98,-23.65 -31.98,-32.97 -13.99,-9.33 -31.31,-16.32 -51.95,-20.98 -20.65,-4.66 -45.63,-5 -74.94,-1 -34.64,3.99 -66.95,13.99 -96.92,29.97 -29.98,15.99 -57.28,35.31 -81.93,57.96 -24.65,22.64 -47.3,46.63 -67.94,71.94 -20.65,25.32 -39.64,49.3 -56.96,71.95l-41.96 -221.82c33.3,-9.33 69.94,-16.66 109.91,-21.98 33.3,-5.33 71.94,-9.99 115.9,-14 43.96,-3.99 89.26,-6.66 135.89,-7.99 91.93,-1.34 166.54,5.99 223.83,21.98 57.28,15.98 89.93,45.96 97.91,89.93 5.33,33.3 -2,63.28 -21.98,89.93 -19.98,26.64 -45.96,50.95 -77.94,72.94 -31.97,21.98 -66.61,41.97 -103.91,59.96 -37.31,17.99 -69.94,34.97 -97.92,50.96 -70.61,39.96 -121.57,86.59 -152.88,139.88 -31.31,53.29 -43.63,124.57 -36.97,213.83 2.67,45.29 10.32,85.26 22.98,119.9 12.66,34.64 29.31,60.29 49.96,76.94 20.64,16.66 44.96,22.32 72.94,16.99 27.98,-5.33 57.95,-25.98 89.93,-61.95 19.99,-17.32 38.63,-41.63 55.95,-72.94 17.32,-31.31 33.31,-65.95 47.97,-103.92 14.65,-37.97 28.97,-76.94 42.97,-116.9 13.99,-39.97 27.3,-77.61 39.96,-112.92 12.66,-35.3 25.65,-65.61 38.97,-90.92 13.32,-25.31 26.64,-42.63 39.96,-51.95l0 203.83c0,63.95 -0.33,137.23 -1,219.82 -0.66,82.6 -1,171.86 -1,267.78l-257.79 0 0 -111.91zm951.91 -921.26c103.91,-2.67 183.19,16.98 238.47,58.95 54.96,41.97 82.6,116.24 82.6,222.82l0 749.4 -257.79 0 0 -703.44c0,-70.61 -6.66,-126.56 -19.99,-167.86 -13.32,-41.3 -30.31,-70.28 -50.95,-86.93 -20.65,-16.65 -43.64,-21.98 -68.95,-15.98 -25.31,5.99 -49.63,21.31 -72.94,45.96 -23.32,24.65 -44.63,58.29 -63.95,100.92 -19.32,42.64 -32.97,91.26 -40.97,145.88l0 681.46 -257.79 0c-1.34,-163.87 -4.66,-314.41 -9.99,-451.64 -2.67,-58.62 -6,-116.9 -9.99,-174.86 -3.99,-57.95 -8.66,-111.91 -13.99,-161.86 -5.33,-49.96 -11.99,-93.6 -19.99,-130.9 -8,-37.31 -16.65,-63.95 -25.98,-79.94l337.72 0 -0.67 173.86c22.65,-65.28 54.3,-115.24 94.6,-149.87 40.63,-34.64 94.26,-53.29 160.54,-55.95zm1015.19 0c103.91,-2.67 183.19,16.98 238.47,58.95 54.96,41.97 82.6,116.24 82.6,222.82l0 749.4 -257.79 0 0 -703.44c0,-70.61 -6.66,-126.56 -19.99,-167.86 -13.32,-41.3 -30.31,-70.28 -50.95,-86.93 -20.65,-16.65 -43.64,-21.98 -68.95,-15.98 -25.31,5.99 -49.63,21.31 -72.94,45.96 -23.32,24.65 -44.63,58.29 -63.95,100.92 -19.32,42.64 -32.97,91.26 -40.97,145.88l0 681.46 -257.79 0c-1.34,-163.87 -4.66,-314.41 -9.99,-451.64 -2.67,-58.62 -6,-116.9 -9.99,-174.86 -3.99,-57.95 -8.66,-111.91 -13.99,-161.86 -5.33,-49.96 -11.99,-93.6 -19.99,-130.9 -8,-37.31 -16.65,-63.95 -25.98,-79.94l337.72 0 -0.67 173.86c22.65,-65.28 54.3,-115.24 94.6,-149.87 40.63,-34.64 94.26,-53.29 160.54,-55.95zm1274.31 403.67c-42.64,11.99 -88.27,24.32 -136.9,36.98 -48.63,12.65 -97.58,25.65 -146.88,38.96 -49.3,13.33 -97.25,25.98 -143.88,37.97 -46.63,12 -89.26,23.32 -127.9,33.98 10.66,47.96 24.65,98.58 41.97,151.87 17.32,53.29 37.64,103.25 60.96,149.88 23.31,46.63 48.29,85.93 74.94,117.91 26.64,31.97 53.95,50.95 81.93,56.95 27.97,5.99 55.95,-5 83.94,-32.97 27.97,-27.98 54.62,-78.61 79.93,-151.88l97.92 8c-31.98,77.27 -74.94,131.89 -128.9,163.87 -53.96,31.97 -124.9,47.29 -212.83,45.96 -62.62,0 -120.9,-13.33 -174.86,-39.97 -53.96,-26.64 -101.26,-63.95 -141.89,-111.91 -40.63,-47.96 -72.95,-105.58 -96.92,-172.86 -23.98,-67.28 -37.3,-142.89 -39.96,-226.81 -2.67,-74.61 3.99,-142.89 19.98,-204.84 15.99,-61.94 40.97,-115.24 74.94,-159.87 33.97,-44.63 76.94,-79.6 128.9,-104.92 51.96,-25.31 112.58,-38.63 181.85,-39.96 54.63,0 104.25,9.65 148.89,28.97 44.63,19.32 84.6,46.63 119.91,81.94 35.3,35.3 65.95,77.94 91.92,127.89 25.98,49.96 46.96,104.92 62.95,164.87zm-567.55 89.93c23.98,-5.33 53.29,-11.99 87.93,-19.99 34.64,-7.99 70.28,-16.31 106.92,-24.98 36.64,-8.66 72.28,-16.65 106.92,-23.98 34.63,-7.33 63.94,-14.33 87.93,-20.98 -31.98,-93.26 -65.62,-168.53 -100.93,-225.81 -35.3,-57.29 -69.94,-97.25 -103.91,-119.91 -33.97,-22.65 -65.28,-29.31 -93.92,-19.99 -28.65,9.32 -51.96,32.64 -69.95,69.94 -17.98,37.31 -29.64,88.6 -34.97,153.88 -5.33,65.29 -0.67,142.56 13.99,231.81zm1618.71 -861.31l0 1398.88 -257.8 0c-14.65,6.66 -40.63,13.66 -77.94,20.98 -37.3,7.33 -77.27,10.99 -119.9,10.99 -69.28,0 -132.9,-13.33 -190.85,-39.97 -57.95,-26.64 -108.57,-63.95 -151.88,-111.91 -43.3,-47.96 -77.94,-105.91 -103.91,-173.86 -25.98,-67.94 -42.3,-143.22 -48.96,-225.81 -4,-61.29 2.33,-122.23 18.98,-182.86 16.66,-60.62 42.97,-114.9 78.94,-162.86 35.98,-47.97 80.94,-86.93 134.9,-116.91 53.96,-29.98 116.24,-45.63 186.85,-46.96 49.29,-1.34 94.59,4.33 135.89,16.98 41.3,12.66 79.26,28.98 113.91,48.97 -2.67,-53.29 -5.99,-103.92 -9.99,-151.88 -3.99,-47.96 -7.99,-91.26 -11.99,-129.9 -3.99,-38.63 -8.99,-71.28 -14.98,-97.92 -6,-26.64 -12.33,-45.29 -18.99,-55.95l337.73 0zm-273.78 569.55c-33.3,-46.63 -69.61,-83.6 -108.91,-110.91 -39.3,-27.31 -78.27,-44.63 -116.9,-51.96 -38.64,-7.33 -74.94,-3.66 -108.91,10.99 -33.97,14.65 -61.29,41.3 -81.94,79.93 -20.64,38.64 -33.63,89.6 -38.96,152.88 -5.33,63.28 2,139.56 21.98,228.82 30.64,146.55 65.95,257.79 105.91,333.73 39.97,75.94 80.94,127.56 122.9,154.88 41.97,27.31 82.27,36.64 120.9,27.98 38.64,-8.67 71.95,-24.99 99.92,-48.97 0,-31.98 -0.33,-76.27 -1,-132.89 -0.66,-56.62 -1.66,-119.91 -2.99,-189.85 -1.33,-69.94 -2.99,-144.21 -4.99,-222.82 -2.01,-78.61 -4.33,-155.87 -7,-231.81zm379.69 717.43c0,-43.96 13.66,-79.6 40.97,-106.92 27.3,-27.31 62.94,-40.97 106.91,-40.97 45.3,0 81.27,13.66 107.92,40.97 26.64,27.31 39.97,62.95 39.97,106.92 0,43.96 -13.33,79.6 -39.97,106.92 -26.64,27.3 -62.61,40.96 -107.92,40.96 -43.96,0 -79.6,-13.66 -106.91,-40.96 -27.31,-27.31 -40.97,-62.95 -40.97,-106.92zm939.25 -917.26c70.61,0 132.89,14.98 186.84,44.96 53.96,29.98 98.59,68.94 133.9,116.9 35.3,47.97 61.29,102.58 77.94,163.87 16.65,61.29 22.98,122.57 18.98,183.86 -6.66,82.6 -22.31,157.21 -46.96,223.82 -24.65,66.62 -56.28,123.9 -94.92,171.87 -38.64,47.96 -83.61,85.26 -134.9,111.91 -51.29,26.64 -106.25,41.3 -164.87,43.96 -42.63,2.67 -81.93,0 -117.9,-8 -35.98,-8 -67.29,-18.65 -93.93,-31.98l0 409.67 -257.79 0c-1.34,-239.8 -4.66,-457.63 -9.99,-653.47 -2.67,-83.93 -6,-166.87 -9.99,-248.8 -3.99,-81.94 -8.66,-157.21 -13.99,-225.82 -5.33,-68.61 -11.99,-127.23 -19.99,-175.86 -8,-48.63 -16.65,-80.93 -25.98,-96.92l337.72 0 0 43.96c34.64,-22.64 71.61,-40.63 110.91,-53.95 39.3,-13.33 80.94,-19.99 124.91,-19.99zm173.85 509.59c27.98,-130.57 32.31,-233.81 12.99,-309.75 -19.32,-75.94 -51.28,-126.23 -95.92,-150.88 -44.63,-24.65 -96.92,-24.31 -156.87,1 -59.96,25.32 -116.58,72.62 -169.87,141.89l0 773.38c29.31,26.64 61.95,44.63 97.92,53.96 35.97,9.32 72.28,-0.33 108.91,-28.98 36.64,-28.64 72.28,-80.59 106.92,-155.87 34.63,-75.27 66.61,-183.52 95.92,-324.74zm665.46 -423.66l0 715.42c0,39.97 2.67,72.62 8,97.92 5.33,25.32 13.66,44.96 24.98,58.96 11.33,13.99 25.65,23.31 42.97,27.97 17.32,4.66 37.98,7 61.95,7l0 35.97c-26.64,9.32 -57.96,16.99 -93.93,22.98 -35.97,6 -68.61,8.99 -97.92,8.99 -22.64,0 -45.96,-1.67 -69.94,-5 -23.98,-3.32 -45.96,-11.32 -65.95,-23.98 -19.99,-12.66 -36.31,-30.98 -48.96,-54.96 -12.66,-23.98 -18.99,-56.62 -18.99,-97.92 0,-55.95 -0.67,-122.56 -2,-199.84 -1.34,-77.27 -4.33,-155.21 -8.99,-233.81 -4.66,-78.61 -11.32,-152.54 -19.99,-221.82 -8.66,-69.28 -19.65,-123.9 -32.97,-163.87l-15.98 -2 0 -27.98c38.63,0 74.6,-9.98 107.91,-29.97 33.31,-19.99 64.29,-44.96 92.93,-74.94 28.64,-29.98 54.29,-63.28 76.94,-99.92 22.64,-36.64 42.63,-70.94 59.95,-102.91l0 307.74 167.86 0 0 67.95 -167.86 -11.99z"/>
  </g>
 </g>
</svg>
